<?xml version="1.0" encoding="UTF-8"?>
<svg width="15px" height="15px" viewBox="0 0 15 15" version="1.1" xmlns="http://www.w3.org/2000/svg" xmlns:xlink="http://www.w3.org/1999/xlink">
    <!-- Generator: Sketch 50.2 (55047) - http://www.bohemiancoding.com/sketch -->
    <title>untouched-red</title>
    <desc>Created with Sketch.</desc>
    <defs></defs>
    <g id="Page-1" stroke="none" stroke-width="1" fill="none" fill-rule="evenodd">
        <g id="untouched-red" fill="#A8A8A8" fill-rule="nonzero">
            <path d="M8.257614,7.5 L10.530127,5.22749 C10.73441,5.0232 10.739667,4.67875 10.530458,4.46954 C10.327367,4.26645 9.981905,4.26048 9.772513,4.46987 L7.5,6.74239 L5.227487,4.46987 C5.023205,4.26559 4.678752,4.26033 4.469542,4.46954 C4.266451,4.67263 4.260481,5.0181 4.469873,5.22749 L6.742386,7.5 L4.469873,9.77251 C4.26559,9.9768 4.260333,10.32125 4.469542,10.53046 C4.672633,10.73355 5.018095,10.73952 5.227487,10.53013 L7.5,8.25761 L9.772513,10.53013 C9.976795,10.73441 10.321248,10.73967 10.530458,10.53046 C10.733549,10.32737 10.739519,9.9819 10.530127,9.77251 L8.257614,7.5 Z M0,7.5 C0,3.35786 3.366293,0 7.5,0 C11.642136,0 15,3.36629 15,7.5 C15,11.64214 11.633707,15 7.5,15 C3.357864,15 0,11.63371 0,7.5 Z" id="Shape"></path>
        </g>
    </g>
</svg>