<?xml version="1.0" encoding="UTF-8"?>
<svg width="23px" height="35px" viewBox="0 0 23 35" version="1.1" xmlns="http://www.w3.org/2000/svg" xmlns:xlink="http://www.w3.org/1999/xlink">
    <!-- Generator: Sketch 50.2 (55047) - http://www.bohemiancoding.com/sketch -->
    <title>right-arrow-black</title>
    <desc>Created with Sketch.</desc>
    <defs></defs>
    <g id="Page-1" stroke="none" stroke-width="1" fill="none" fill-rule="evenodd">
        <g id="right-arrow-black" transform="translate(11.500000, 18.000000) rotate(90.000000) translate(-11.500000, -18.000000) translate(-6.000000, 6.000000)" fill="#000000" fill-rule="nonzero">
            <path d="M1.2435469,10.462 C2.34892193,10.462 10.6804652,10.462 26.2381769,10.462 C26.9330472,10.462 27.497,11.133 27.497,11.962 C27.497,12.791 26.9330472,13.462 26.2381769,13.462 C10.6804652,13.462 2.34892193,13.462 1.2435469,13.462 C-0.414515634,13.462 -0.414515634,10.462 1.2435469,10.462 Z" id="Shape"></path>
            <path d="M22.5277201,10.462 C23.4406786,10.462 30.3219207,10.462 43.1714465,10.462 C43.7453583,10.462 44.2111418,11.133 44.2111418,11.962 C44.2111418,12.791 43.7453583,13.462 43.1714465,13.462 C30.3219207,13.462 23.4406786,13.462 22.5277201,13.462 C21.1582824,13.462 21.1582824,10.462 22.5277201,10.462 Z" id="Shape" transform="translate(32.855892, 11.962000) rotate(90.000000) translate(-32.855892, -11.962000) "></path>
            <path d="M20.6592546,20.273 C20.2932546,20.273 19.9272546,20.14 19.6382546,19.872 C19.0322546,19.308 18.9972546,18.358 19.5612546,17.752 L25.8952546,10.941 C26.4612546,10.334 27.4102546,10.301 28.0152546,10.864 C28.6212546,11.428 28.6562546,12.378 28.0922546,12.984 L21.7582546,19.795 C21.4622546,20.112 21.0602546,20.273 20.6592546,20.273 Z" id="Shape"></path>
            <path d="M20.6592546,13.5 C20.2932546,13.5 19.9272546,13.367 19.6382546,13.099 C19.0322546,12.535 18.9972546,11.585 19.5612546,10.979 L25.8952546,4.16799997 C26.4612546,3.56099997 27.4102546,3.52799997 28.0152546,4.09099997 C28.6212546,4.65499997 28.6562546,5.60499997 28.0922546,6.21099997 L21.7582546,13.022 C21.4622546,13.339 21.0602546,13.5 20.6592546,13.5 Z" id="Shape" transform="translate(23.826755, 8.594890) scale(-1, 1) rotate(-180.000000) translate(-23.826755, -8.594890) "></path>
        </g>
    </g>
</svg>