<svg height='451' width='451'  fill="#000000" xmlns="http://www.w3.org/2000/svg" xmlns:xlink="http://www.w3.org/1999/xlink" viewBox="0 0 32 32" version="1.1" x="0px" y="0px"><title>Edit 744</title><desc>Created with Sketch.</desc><g stroke="none" stroke-width="1" fill="none" fill-rule="evenodd"><g fill="#000000" fill-rule="nonzero"><path d="M30.92,3.508 L28.492,1.08 C27.932,0.529 27.037,0.529 26.487,1.08 L23.947,3.62 L28.378,8.053 L30.919,5.521 C31.472,4.954 31.472,4.06 30.92,3.508 Z M23.197,4.379 L9.46,18.555 L8.335,23.666 L13.446,22.541 L27.55,8.724 L23.197,4.379 Z M26.224,15.999 L26.224,27.978 C26.224,28.385 25.913,28.785 25.488,28.785 C25.065,28.785 4.003,28.777 4.003,28.777 C3.556,28.777 3.22,28.346 3.22,27.978 L3.22,6.574 C3.22,6.175 3.595,5.775 4.067,5.775 L16,5.775 L18.556,3.22 L2.535,3.22 C1.497,3.22 0.666,4.043 0.666,5.081 L0.666,29.463 C0.666,30.494 1.505,31.333 2.535,31.333 L26.918,31.333 C27.949,31.333 28.779,30.494 28.779,29.463 L28.779,13.443 L26.224,15.999 Z"></path></g></g></svg>