<?xml version="1.0" encoding="UTF-8"?>
<svg width="33px" height="89px" viewBox="0 0 33 89" version="1.1" xmlns="http://www.w3.org/2000/svg" xmlns:xlink="http://www.w3.org/1999/xlink">
    <!-- Generator: Sketch 50.2 (55047) - http://www.bohemiancoding.com/sketch -->
    <title>Shape</title>
    <desc>Created with Sketch.</desc>
    <defs></defs>
    <g id="Page-1" stroke="none" stroke-width="1" fill="none" fill-rule="evenodd">
        <g id="link-gray" transform="translate(16.500000, 45.000000) rotate(135.000000) translate(-16.500000, -45.000000) translate(-27.000000, 1.000000)" fill="#B8B8B8" fill-rule="nonzero">
            <g id="Group" transform="translate(43.677854, 43.980430) rotate(-45.000000) translate(-43.677854, -43.980430) translate(-0.822146, 27.480430)">
                <path d="M16.0157481,0.0354330702 C7.19291334,0.0354330702 0,7.22834604 0,16.0157471 C0,24.8385811 7.19291334,32.0314942 16.0157481,32.0314942 L36.0000002,32.0314942 C44.3976372,32.0314942 51.3425193,25.5472431 51.9803143,17.2913381 C52.0866143,15.6968491 50.7755903,14.1732271 49.2165353,14.0314951 C47.6220473,13.9251961 46.0984252,15.2362201 45.9566922,16.7952751 C45.5669292,22.0039361 41.3503932,26.0433061 36.0000002,26.0433061 L16.0157481,26.0433061 C10.4173231,26.0433061 5.98818893,21.6141721 5.98818893,16.0157471 C5.98818893,10.4527551 10.4173231,6.02362173 16.0157481,6.02362173 L35.0078742,6.02362173 C36.6023622,6.05905483 38.0551182,4.60629892 38.0551182,3.04724392 C38.0551182,1.45275581 36.6023622,0 35.0078742,0.0354330702 L16.0157481,0.0354330702 Z M52.0157473,0.0354330702 C43.5826772,0.0354330702 36.6377952,6.51968464 36.0354332,14.7755901 C35.8937002,16.3346451 37.2401572,17.8937001 38.7992122,17.9999991 C40.3582672,18.1417311 41.9173222,16.8307081 42.0236222,15.2362201 C42.4133852,10.0629921 46.6653543,6.02362173 52.0157473,6.02362173 L71.9999994,6.02362173 C77.5984244,6.02362173 81.9921254,10.4527551 81.9921254,16.0157471 C81.9921254,21.6141721 77.5984244,26.0433061 71.9999994,26.0433061 L53.0078733,26.0433061 C51.4133853,26.0078761 49.9606293,27.4606281 49.9606293,29.0196832 C49.9606293,30.6141712 51.4133853,32.0669272 53.0078733,32.0314942 L71.9999994,32.0314942 C80.8228344,32.0314942 88.0157475,24.8385811 88.0157475,16.0157471 C88.0157475,7.22834604 80.8228344,0.0354330702 71.9999994,0.0354330702 L52.0157473,0.0354330702 Z" id="Shape"></path>
            </g>
        </g>
    </g>
</svg>