<?xml version="1.0" encoding="UTF-8"?>
<svg width="35px" height="18px" viewBox="0 0 35 18" version="1.1" xmlns="http://www.w3.org/2000/svg" xmlns:xlink="http://www.w3.org/1999/xlink">
    <!-- Generator: Sketch 50.2 (55047) - http://www.bohemiancoding.com/sketch -->
    <title>Group 3</title>
    <desc>Created with Sketch.</desc>
    <defs></defs>
    <g id="Page-1" stroke="none" stroke-width="1" fill="none" fill-rule="evenodd">
        <g id="switch-black" fill="#000000" fill-rule="nonzero">
            <g id="Group-3">
                <path d="M2.21366983,7.462 C3.53082273,7.462 13.4585994,7.462 31.997,7.462 C32.825,7.462 33.497,8.133 33.497,8.962 C33.497,9.791 32.825,10.462 31.997,10.462 C13.4585994,10.462 3.53082273,10.462 2.21366983,10.462 C0.237940485,10.462 0.237940485,7.462 2.21366983,7.462 Z" id="Shape"></path>
                <path d="M26.6592546,17.273 C26.2932546,17.273 25.9272546,17.14 25.6382546,16.872 C25.0322546,16.308 24.9972546,15.358 25.5612546,14.752 L31.8952546,7.941 C32.4612546,7.334 33.4102546,7.301 34.0152546,7.864 C34.6212546,8.428 34.6562546,9.378 34.0922546,9.984 L27.7582546,16.795 C27.4622546,17.112 27.0602546,17.273 26.6592546,17.273 Z" id="Shape"></path>
                <path d="M26.6592546,10.3102193 C26.2932546,10.3102193 25.9272546,10.1772193 25.6382546,9.90921927 C25.0322546,9.34521927 24.9972546,8.39521927 25.5612546,7.78921927 L31.8952546,0.978219266 C32.4612546,0.371219266 33.4102546,0.338219266 34.0152546,0.901219266 C34.6212546,1.46521927 34.6562546,2.41521927 34.0922546,3.02121927 L27.7582546,9.83221927 C27.4622546,10.1492193 27.0602546,10.3102193 26.6592546,10.3102193 Z" id="Shape" transform="translate(29.826755, 5.405110) scale(1, -1) translate(-29.826755, -5.405110) "></path>
            </g>
        </g>
    </g>
</svg>